<svg xmlns="http://www.w3.org/2000/svg" viewBox="0 0 49.83 49.83"><defs><style>.cls-1,.cls-2{fill:#fff;}.cls-2{opacity:0.12;isolation:isolate;}.cls-3{fill:#1f4b3e;}</style></defs><title>zalo-light</title><g id="Layer_2" data-name="Layer 2"><g id="Layer_1-2" data-name="Layer 1"><path class="cls-1" d="M22.62.17H27c6.07,0,9.61.89,12.76,2.57a17.54,17.54,0,0,1,7.3,7.3c1.69,3.15,2.58,6.69,2.58,12.76v4.4c0,6.07-.89,9.61-2.58,12.76a17.54,17.54,0,0,1-7.3,7.3C36.64,48.94,33.1,49.83,27,49.83h-4.4c-6.06,0-9.61-.89-12.75-2.57A17.54,17.54,0,0,1,2.58,40C.89,36.81,0,33.27,0,27.2V22.8C0,16.73.89,13.19,2.58,10a17.54,17.54,0,0,1,7.3-7.3C13,1.06,16.57.17,22.62.17Z"/><path class="cls-2" d="M49.67,26.47v.73c0,6.07-.89,9.61-2.58,12.76a17.54,17.54,0,0,1-7.3,7.3C36.64,48.94,33.1,49.83,27,49.83h-4.4c-5,0-8.23-.59-11-1.73L7.11,43.43Z"/><path class="cls-3" d="M7.61,43.59a14.51,14.51,0,0,0,7.29-1.41c9,5,23,4.72,31.43-.71.32-.49.63-1,.92-1.53,1.69-3.16,2.58-6.72,2.58-12.81V22.72c0-6.09-.89-9.65-2.58-12.81a17.54,17.54,0,0,0-7.33-7.32C36.76.89,33.21,0,27.12,0H22.68C17.5,0,14.13.65,11.3,1.9l-.45.42c-8.3,8-8.93,25.34-1.89,34.76a.08.08,0,0,0,0,0c1.09,1.6,0,4.4-1.6,6C7.12,43.4,7.21,43.55,7.61,43.59Z"/><path class="cls-1" d="M20.4,17H10.67v2.09h6.75l-6.65,8.24a1.88,1.88,0,0,0-.36,1.23v.53h9.17a.84.84,0,0,0,.84-.83V27.14H13.33l6.25-7.85c.1-.11.27-.32.34-.41l0-.06a2.49,2.49,0,0,0,.44-1.54Z"/><path class="cls-1" d="M32.78,29.09h1.38V17H32.07V28.39A.7.7,0,0,0,32.78,29.09Z"/><path class="cls-1" d="M25.65,19.69a4.74,4.74,0,1,0,4.74,4.74A4.74,4.74,0,0,0,25.65,19.69Zm0,7.53a2.79,2.79,0,1,1,2.78-2.79A2.79,2.79,0,0,1,25.65,27.22Z"/><path class="cls-1" d="M40.32,19.62a4.78,4.78,0,1,0,4.78,4.77A4.78,4.78,0,0,0,40.32,19.62Zm0,7.6a2.81,2.81,0,1,1,2.81-2.81A2.81,2.81,0,0,1,40.32,27.22Z"/><path class="cls-1" d="M29.29,29.09h1.12V20H28.46v8.32A.83.83,0,0,0,29.29,29.09Z"/></g></g></svg>